PathFileType	4	(X/Y/Z)	/Users/niels/Desktop/University/Third Semester/Perception and Action/Exam/Gymnastics Motion Tracking/Code for Gym Tracking/Analyzed Data/Webcam_Backflip/id3_1_trajectory_Sports2D/id3_1_trajectory_Sports2D_px_person00.trc
DataRate	CameraRate	NumFrames	NumMarkers	Units	OrigDataRate	OrigDataStartFrame	OrigNumFrames
29.708737864077673	29.708737864077673	7	22	m	29.708737864077673	38	103
Frame#	Time	Hip			RHip			RKnee			RAnkle			RBigToe			RSmallToe			RHeel			LHip			LKnee			LAnkle			LBigToe			LSmallToe			LHeel			Neck			Head			Nose			RShoulder			RElbow			RWrist			LShoulder			LElbow			LWrist		
		X1	Y1	Z1	X2	Y2	Z2	X3	Y3	Z3	X4	Y4	Z4	X5	Y5	Z5	X6	Y6	Z6	X7	Y7	Z7	X8	Y8	Z8	X9	Y9	Z9	X10	Y10	Z10	X11	Y11	Z11	X12	Y12	Z12	X13	Y13	Z13	X14	Y14	Z14	X15	Y15	Z15	X16	Y16	Z16	X17	Y17	Z17	X18	Y18	Z18	X19	Y19	Z19	X20	Y20	Z20	X21	Y21	Z21	X22	Y22	Z22
38	1.2790849673202613	0.9015175235779816	-0.6311614976486369	0.0	0.8953659188869978	-0.6280655430414077	0.0	0.8991806644540492	-0.7478777014721881	0.0	0.8609164551804455	-0.8641648211542658	0.0	0.9106515857084665	-0.8862396757815603	0.0	0.886316343172164	-0.8869475356790131	0.0	0.8496537959785974	-0.8807259484996147	0.0	0.9028015002308426	-0.6270680014904901	0.0	0.9018437248153623	-0.7427503535087465	0.0	0.8678832653512846	-0.8504566603219342	0.0	0.9152359679820141	-0.8736669084936349	0.0	0.9101795065241802	-0.8704375113697982	0.0	0.849802333002202	-0.8715519428530952	0.0	0.9236641399980473	-0.4629650121159637	0.0	0.9645392962343351	-0.3862841420550651	0.0	0.9694557193358898	-0.4296066636230179	0.0	0.908357591152876	-0.4634782620294145	0.0	0.9309533474255635	-0.39231513868691326	0.0	0.9387735653638491	-0.3326681079732379	0.0	0.9369924912337015	-0.4650878974223833	0.0	0.9838535654055127	-0.4122585795319699	0.0	0.9827922884558821	-0.35514944879903415	0.0
39	1.3127450980392157	0.9052005372006843	-0.5894759997044899	0.0	0.8977033754590293	-0.5871826176659222	0.0	0.9041018692863014	-0.7075330664390191	0.0	0.8668431774216732	-0.8269536910726016	0.0	0.9101602435178525	-0.8553448724724273	0.0	0.8909700376427285	-0.85559240702503	0.0	0.855214963530331	-0.8440077499024354	0.0	0.9084863241072187	-0.5869664326186916	0.0	0.9069725312223307	-0.7035259360683738	0.0	0.8731891787171543	-0.8143965282318815	0.0	0.9173772673705671	-0.8436091017030524	0.0	0.9123144189956234	-0.8411683912527468	0.0	0.8563668471041862	-0.83567778785329	0.0	0.928348980069288	-0.4216522718203156	0.0	0.9706146928109116	-0.34483152022036734	0.0	0.9755059924151464	-0.3901935048550823	0.0	0.9114265920116291	-0.42250075312072505	0.0	0.9379905495396021	-0.35674427878206577	0.0	0.9536710047561195	-0.2984605920761258	0.0	0.943259626978923	-0.4245884350110614	0.0	0.9933157631282645	-0.37966791478427203	0.0	0.998327968851688	-0.3232109601723097	0.0
40	1.3464052287581698	0.909342156855264	-0.5483217493542334	0.0	0.9000805881818026	-0.5470262901370476	0.0	0.9089029889067788	-0.6684700307445163	0.0	0.8743853807163039	-0.7904137168317827	0.0	0.911064095072078	-0.825179434002556	0.0	0.8959940855304683	-0.8242926958981605	0.0	0.8623426420957305	-0.8072106359209466	0.0	0.9151649283465859	-0.5476175504074855	0.0	0.9129078489966233	-0.6655053539282783	0.0	0.8798936524064135	-0.7795065254509059	0.0	0.9199577391721951	-0.8133335961684237	0.0	0.9138993001194089	-0.8121719149770351	0.0	0.8638420330355123	-0.7994425320527192	0.0	0.9329529225148341	-0.3804789818207274	0.0	0.9761574243820772	-0.3032330377662255	0.0	0.9810856523493723	-0.35052020709741344	0.0	0.9139124872646159	-0.3817926724769496	0.0	0.9453838450863854	-0.3221615478067521	0.0	0.9696878259308646	-0.2654459891795234	0.0	0.9502134623311631	-0.38493115968642844	0.0	1.0036597567251064	-0.3477721868480763	0.0	1.0155437910912566	-0.29146114121210415	0.0
41	1.3800653594771242	0.9136003839968813	-0.5099388883659841	0.0	0.9024850248981119	-0.5095691754109576	0.0	0.9132717738670058	-0.6321317810867566	0.0	0.8831618699678856	-0.7559767523360321	0.0	0.9137807536461255	-0.7963387953283666	0.0	0.9018372003736663	-0.7939979324660112	0.0	0.8707813803540103	-0.7718244269582362	0.0	0.9221172374901303	-0.5108567780356708	0.0	0.9191559797566854	-0.6300460611115155	0.0	0.8879265264387892	-0.7468293152681283	0.0	0.9236203800490036	-0.7839503161045015	0.0	0.9161393232693024	-0.7838551161702054	0.0	0.872504423475521	-0.764465070892788	0.0	0.9374409117775796	-0.3418365680193034	0.0	0.9806640549645101	-0.2639753550894589	0.0	0.9858438447251407	-0.3125539612401129	0.0	0.9159114310344096	-0.3435175029715399	0.0	0.9527088103671454	-0.2904274325199049	0.0	0.9858484683127495	-0.23561921992099624	0.0	0.9575325183094613	-0.3483380141057113	0.0	1.0144600183211707	-0.3180990667497507	0.0	1.0335160184899936	-0.2621000782458725	0.0
42	1.4137254901960783	0.9178167302768018	-0.47564725457812795	0.0	0.9050653680722636	-0.47585885973383457	0.0	0.9170785404634229	-0.5992788767436013	0.0	0.8927056566232	-0.7244422211111254	0.0	0.9187195880616467	-0.7690214712376789	0.0	0.9090854292792172	-0.7652926141103039	0.0	0.8802556696567954	-0.7389547566254248	0.0	0.9287290239147912	-0.47767170910781287	0.0	0.9253068537442534	-0.5978883198174834	0.0	0.8969824936986938	-0.7168492740915386	0.0	0.9289270474230605	-0.7562016078061556	0.0	0.9202538244904495	-0.7563745585417374	0.0	0.8822968708919654	-0.7320575699319073	0.0	0.9419120622050913	-0.307145868430818	0.0	0.9841536614061821	-0.2288508635405683	0.0	0.9898732589728733	-0.27781304979522303	0.0	0.9177009515667179	-0.3090718456459833	0.0	0.959853602508682	-0.2625809988011728	0.0	1.0017189988377864	-0.21021173794534584	0.0	0.9648531409037574	-0.31604531896818283	0.0	1.0253497350720446	-0.29166161522462997	0.0	1.0516902851507657	-0.23677273635431753	0.0
43	1.4473856209150326	0.9220488503345935	-0.4459181798346715	0.0	0.9080316500913668	-0.4461756293886843	0.0	0.9203990364690635	-0.5702888246918622	0.0	0.9026512091455144	-0.6962028041240705	0.0	0.9258848705834889	-0.7436730218606591	0.0	0.9179520865203952	-0.7388174945648485	0.0	0.8905960268767678	-0.7093622816358137	0.0	0.9347264926682118	-0.448365582840433	0.0	0.9312330764485212	-0.5693997068829894	0.0	0.9065933880270445	-0.689790411746007	0.0	0.935998212732905	-0.7306787024809199	0.0	0.9267927287875022	-0.7301727764001628	0.0	0.8927748712906626	-0.7030472057141007	0.0	0.946483099216612	-0.2769896706282645	0.0	0.9869328013617988	-0.1986215595541766	0.0	0.9934640534212847	-0.24718047127039625	0.0	0.9196858954942209	-0.27907755276684154	0.0	0.9668514811347955	-0.2391436846601379	0.0	1.0171227033121244	-0.1899515009968434	0.0	0.9718746951564948	-0.28838765643182657	0.0	1.0359896967151137	-0.26900493468787257	0.0	1.0697582292030774	-0.2164964298277016	0.0
44	1.4810457516339868	0.9264313560169495	-0.4206474134503402	0.0	0.9114834754830881	-0.42038671372219105	0.0	0.9235412946963569	-0.5453365256482516	0.0	0.9127533503114653	-0.6714235587814398	0.0	0.9348181726361033	-0.7209254033564078	0.0	0.9280743361739152	-0.7152146329832243	0.0	0.90161109322373	-0.68349524824385	0.0	0.9401968217996537	-0.42287595151933377	0.0	0.9370754552713956	-0.5447266094235135	0.0	0.9162720775544558	-0.6657541738320424	0.0	0.9444918648964806	-0.7077799795997909	0.0	0.9355248642048744	-0.7059139165225299	0.0	0.9033020155370611	-0.677745145578533	0.0	0.9512790879839065	-0.25142413413007697	0.0	0.9892985926630357	-0.17308624038604145	0.0	0.9968169200868112	-0.22088743368257407	0.0	0.9222794325080373	-0.25358538720440926	0.0	0.9736290826232099	-0.22052158639387398	0.0	1.031790607472421	-0.17537191241618294	0.0	0.978531050078536	-0.26514231927869564	0.0	1.0461497627320884	-0.2503757031624826	0.0	1.087521905994007	-0.201738937715996	0.0
